<svg width="24" height="24" viewBox="0 0 24 24" fill="none" xmlns="http://www.w3.org/2000/svg">
<path d="M2.64421 14.5817C2.44805 14.5413 2.29948 14.4368 2.1985 14.2682C2.10762 14.1165 2.03766 14.0356 1.98862 14.0255C1.98788 13.8629 1.93161 13.7331 1.81982 13.6362C1.72029 13.5418 1.6341 13.4428 1.56126 13.3391C1.5187 13.286 1.48336 13.227 1.45523 13.1622C1.43935 13.0998 1.41735 13.0362 1.38922 12.9713C1.29688 12.7454 1.22763 12.576 1.18147 12.4631C1.1353 12.3501 1.13167 12.1647 1.17058 11.9068C1.21166 11.6346 1.29888 11.3497 1.43226 11.0522C1.5678 10.7403 1.7019 10.4798 1.83457 10.2708C1.86773 10.2185 1.9164 10.1473 1.98057 10.0571C2.05917 9.95512 2.10784 9.8839 2.12658 9.84344L2.14497 9.84723C2.11758 9.945 2.07288 10.0318 2.01087 10.1077C1.95102 10.1692 1.91353 10.2501 1.8984 10.3504C1.95392 10.3176 2.05812 10.2134 2.21098 10.0381C2.36384 9.86278 2.45073 9.74772 2.47163 9.69294C2.45937 9.69041 2.45324 9.68915 2.45324 9.68915C2.45541 9.67482 2.45649 9.66766 2.45649 9.66766L2.41971 9.66008C2.40529 9.67188 2.39591 9.69211 2.39159 9.72076C2.38727 9.74942 2.37068 9.77555 2.34184 9.79915C2.32597 9.73679 2.32019 9.69128 2.32452 9.66262C2.33965 9.56232 2.38327 9.48267 2.45538 9.42366C2.52965 9.35032 2.58444 9.28036 2.61977 9.21377L2.64247 9.06332C2.75136 9.01189 2.84834 8.91369 2.93342 8.76871C3.02066 8.6094 3.1025 8.48592 3.17893 8.39825C3.22219 8.36284 3.26943 8.34303 3.32063 8.33881C3.37399 8.32026 3.41725 8.28485 3.45042 8.23259C3.49801 8.16853 3.53334 8.10194 3.55641 8.03283C3.5939 7.95191 3.64148 7.88785 3.69917 7.84064C3.7547 7.80776 3.82032 7.79174 3.89604 7.79257C3.97176 7.7934 4.01719 7.74366 4.03232 7.64337L3.97391 7.65349L4.00851 7.54982C4.24358 7.33233 4.46747 7.10515 4.68018 6.86829C4.90515 6.63395 5.13409 6.4152 5.367 6.21204C5.43694 6.16736 5.49968 6.12858 5.5552 6.0957C5.61073 6.06282 5.66733 6.02278 5.72502 5.97557C5.86707 5.87188 6.00913 5.76819 6.15118 5.6645C6.2954 5.54648 6.43853 5.43563 6.58059 5.33194C6.83801 5.13383 7.09652 4.92856 7.35611 4.71613C7.61786 4.48937 7.88538 4.30812 8.15868 4.17238C8.22863 4.1277 8.29749 4.09018 8.36528 4.05983C8.44532 4.032 8.51924 4.00292 8.58702 3.97256C8.86248 3.8225 9.13686 3.67959 9.41016 3.54385C9.68346 3.40812 9.95676 3.27238 10.2301 3.13664C10.419 3.05738 10.6119 2.99372 10.8088 2.94565C11.0078 2.88324 11.2007 2.81958 11.3875 2.75465C11.6009 2.68045 11.8183 2.62184 12.0397 2.57882C12.2633 2.52147 12.4857 2.47129 12.7071 2.42827C12.8896 2.39199 13.1048 2.34771 13.3529 2.29542C13.6132 2.24565 13.8292 2.23845 14.0009 2.27382C14.148 2.30414 14.2662 2.35806 14.3557 2.43558C14.4451 2.51311 14.5302 2.61929 14.611 2.75413C14.6939 2.87464 14.8093 3.03138 14.9572 3.22437C15.1173 3.41987 15.258 3.61876 15.3792 3.82101C15.5003 4.02327 15.549 4.2032 15.5252 4.36082C15.4971 4.54708 15.411 4.69923 15.2668 4.81725C15.1348 4.93779 14.9949 5.02715 14.8471 5.08533C14.6971 5.15784 14.5511 5.24594 14.409 5.34963C14.2691 5.43899 14.1119 5.5174 13.9374 5.58485C13.8422 5.71297 13.6735 5.82594 13.4312 5.92375C13.1889 6.02155 13.0003 6.05656 12.8655 6.02877L12.859 6.07175C12.7624 6.12571 12.6441 6.19737 12.5042 6.28673C12.3766 6.37862 12.2616 6.42879 12.1592 6.43723C12.1447 6.44903 12.1191 6.45114 12.0824 6.44356C12.0679 6.45537 12.0452 6.48023 12.0142 6.51817C11.9854 6.54177 11.9638 6.55947 11.9493 6.57127L11.9461 6.59277C11.8826 6.59446 11.8231 6.61175 11.7676 6.64463C11.7142 6.66318 11.6569 6.66614 11.5956 6.65351C11.548 6.71757 11.4875 6.74202 11.4139 6.72686C11.3973 6.75299 11.3685 6.77659 11.3274 6.79767C11.2884 6.80442 11.2596 6.82802 11.2408 6.86848L11.2224 6.86469L11.1705 6.83183C11.1251 6.88157 11.0779 6.90138 11.0288 6.89127C10.9798 6.88117 10.9225 6.88413 10.8568 6.90015C10.8424 6.91195 10.8013 6.93303 10.7335 6.96338C10.6657 6.99374 10.6196 7.00639 10.5951 7.00133L10.5767 6.99754L10.6015 6.95835C10.9282 6.80406 11.2448 6.63291 11.5512 6.44492C11.8721 6.24511 12.1909 6.05964 12.5074 5.8885C12.6307 5.82527 12.8179 5.71609 13.0688 5.56097C13.3197 5.40585 13.5862 5.23177 13.8681 5.03871C14.1501 4.84566 14.388 4.65093 14.582 4.45452C14.7904 4.24631 14.9054 4.07057 14.927 3.92728C14.9486 3.784 14.8963 3.66981 14.7701 3.5847C14.6461 3.48527 14.535 3.42545 14.4369 3.40523C14.204 3.35723 14.0114 3.37665 13.8593 3.46348C13.7071 3.55032 13.5636 3.57984 13.4288 3.55205L13.4007 3.61274C13.3148 3.59505 13.2287 3.62162 13.1421 3.69243C13.0578 3.74891 12.9665 3.76704 12.8685 3.74683C12.8396 3.77044 12.7585 3.80543 12.6251 3.8518C12.5039 3.90071 12.3767 3.94835 12.2433 3.99472C12.1098 4.0411 12.0154 4.08073 11.9599 4.11361C11.7176 4.21141 11.4753 4.30922 11.233 4.40703C10.9907 4.50483 10.7524 4.61823 10.518 4.74722C10.4646 4.76577 10.4091 4.79865 10.3514 4.84586C10.2959 4.87874 10.2404 4.91162 10.1848 4.9445L9.66131 5.14686C9.64905 5.14433 9.58019 5.18185 9.45472 5.25941C9.32925 5.33697 9.20378 5.41453 9.07831 5.49209C8.96509 5.57217 8.90849 5.61222 8.90849 5.61222C8.84071 5.64257 8.70189 5.72477 8.49205 5.85881C8.28222 5.99285 8.03632 6.1564 7.75438 6.34945C7.48469 6.54503 7.215 6.74061 6.94532 6.93619C6.68789 7.13429 6.46544 7.31006 6.27796 7.46348C6.10274 7.61943 6.00575 7.71763 5.98701 7.75809C5.8536 7.80447 5.71768 7.90942 5.57924 8.07295C5.44079 8.23648 5.32002 8.36672 5.2169 8.46366C4.60184 9.10514 4.04122 9.72092 3.53504 10.311C3.03103 10.8867 2.58508 11.6221 2.19721 12.5173C2.15756 12.6125 2.11683 12.7149 2.07501 12.8245C2.03536 12.9197 2.00689 13.0247 1.9896 13.1393C1.95285 13.3829 1.9864 13.5375 2.09025 13.6033C2.19194 13.6833 2.32248 13.7398 2.48186 13.7726C2.84965 13.8484 3.24556 13.8635 3.66959 13.8179C4.10588 13.7749 4.49204 13.6033 4.82806 13.3032C5.05593 13.2172 5.25496 13.1548 5.42515 13.116C5.5975 13.0629 5.79148 12.992 6.00709 12.9035C6.0893 12.8614 6.17583 12.7905 6.26668 12.6911C6.37195 12.5798 6.47074 12.5115 6.56305 12.4862C6.64309 12.4584 6.68203 12.4516 6.67987 12.466C6.68997 12.4828 6.70115 12.4925 6.71341 12.495C6.72783 12.4832 6.78227 12.4575 6.87674 12.4179L6.88323 12.3749L6.91352 12.4255L6.9503 12.4331C7.05703 12.396 7.22973 12.2986 7.46841 12.1409C7.72151 11.9715 7.9602 11.8138 8.18446 11.668C8.40872 11.5222 8.54645 11.4471 8.59765 11.4429C8.62649 11.4193 8.66867 11.3911 8.7242 11.3582C8.77972 11.3253 8.83309 11.3067 8.88429 11.3025C9.01769 11.2561 9.16191 11.1381 9.31694 10.9485C9.48422 10.7613 9.62303 10.6791 9.73337 10.7019C9.77015 10.7095 9.78314 10.7491 9.77233 10.8207C9.66489 10.9463 9.48967 11.1023 9.24666 11.2886C9.00366 11.4749 8.74839 11.6586 8.48087 11.8399C8.2256 12.0237 8.00026 12.1767 7.80485 12.2989C7.62169 12.4237 7.52903 12.4932 7.52687 12.5076C7.49009 12.5 7.38733 12.5527 7.21859 12.6656C7.06428 12.7668 6.8822 12.8844 6.67237 13.0184C6.46253 13.1525 6.26603 13.2819 6.08287 13.4067C5.89972 13.5314 5.77424 13.609 5.70646 13.6393C5.53989 13.738 5.30877 13.8455 5.01311 13.9618C4.71746 14.0782 4.39836 14.1823 4.05582 14.2743C3.72339 14.383 3.427 14.4623 3.16668 14.5121C2.90418 14.5762 2.73003 14.5994 2.64421 14.5817Z" fill="white" stroke-width="0.2" stroke="black"/>
<path d="M7.48786 15.048C7.40275 14.9418 7.37424 14.7956 7.40235 14.6093C7.41532 14.5234 7.43118 14.4601 7.44992 14.4197C7.48525 14.3531 7.51842 14.3008 7.54942 14.2629C7.57033 14.2081 7.59123 14.1533 7.61214 14.0985L7.68352 14.0024L7.9074 13.6497C7.99248 13.5047 8.09595 13.3635 8.2178 13.2261C8.33966 13.0887 8.45431 12.9572 8.56174 12.8316C8.56391 12.8173 8.57941 12.7983 8.60825 12.7747C8.63926 12.7368 8.65476 12.7178 8.65476 12.7178L9.00194 12.3018C9.06179 12.2403 9.12164 12.1788 9.18149 12.1172C9.2536 12.0582 9.30226 11.987 9.32749 11.9036L9.34913 11.8859C9.39023 11.8648 9.44179 11.8163 9.5038 11.7404C9.58023 11.6528 9.63503 11.5828 9.66819 11.5305C9.83332 11.3577 9.99231 11.1837 10.1452 11.0083C10.3103 10.8355 10.4693 10.6615 10.6221 10.4861L10.6687 10.4292L9.53293 11.1703C9.40746 11.2478 9.27875 11.3469 9.14679 11.4674C9.017 11.5736 8.88108 11.6786 8.73902 11.7823C8.64023 11.8506 8.57245 11.8809 8.53567 11.8733C8.51115 11.8683 8.50213 11.8443 8.50862 11.8013C8.52159 11.7153 8.59081 11.6335 8.71628 11.556C8.81291 11.502 8.89114 11.4443 8.95099 11.3828C9.013 11.3069 9.0934 11.2348 9.19219 11.1665C9.26214 11.1218 9.35083 11.0367 9.45826 10.9111C9.57796 10.788 9.67278 10.7042 9.74273 10.6595C9.83936 10.6055 9.96194 10.5052 10.1105 10.3585C10.2734 10.2001 10.3982 10.0854 10.4847 10.0146C10.8554 9.73641 11.1099 9.51555 11.2483 9.35202C11.3868 9.18849 11.5281 9.04772 11.6723 8.9297L12.4457 8.20264C12.4889 8.16724 12.5416 8.1116 12.6036 8.03574L12.7669 7.95859C12.8383 7.98808 12.9267 8.07277 13.032 8.21266C13.1495 8.35508 13.1586 8.50468 13.0591 8.66146C13.0569 8.67579 12.9981 8.73016 12.8828 8.82457C12.7695 8.90466 12.6553 8.99191 12.5399 9.08632C12.4245 9.18074 12.3535 9.23258 12.3268 9.24186C12.3023 9.23681 12.2889 9.24144 12.2868 9.25577C12.0351 9.49939 11.8682 9.64227 11.786 9.68443C11.7038 9.72658 11.6555 9.75356 11.641 9.76536C11.6389 9.77969 11.6003 9.86777 11.5253 10.0296C11.4842 10.0507 11.441 10.0861 11.3955 10.1358C11.3645 10.1738 11.3325 10.2189 11.2993 10.2711L11.2441 10.2597C11.2232 10.3145 11.1911 10.3596 11.1479 10.395C11.119 10.4186 11.0891 10.4494 11.0581 10.4873L10.9402 10.6403L10.7671 10.7819L10.606 10.9703C10.575 11.0083 10.544 11.0462 10.513 11.0841C10.4942 11.1246 10.4693 11.1638 10.4383 11.2017C10.3785 11.2633 10.3114 11.3307 10.2372 11.404C10.1773 11.4656 10.1164 11.5343 10.0544 11.6101C10.009 11.6599 9.95848 11.7012 9.90295 11.7341C9.84959 11.7526 9.80416 11.8023 9.76667 11.8833C9.75009 11.9094 9.72197 11.9701 9.68232 12.0653C9.64483 12.1462 9.61382 12.1842 9.5893 12.1791C9.57201 12.2937 9.52226 12.3721 9.44005 12.4143C9.37011 12.459 9.298 12.518 9.22373 12.5913L9.0031 12.9226L8.9036 13.0794L8.67755 13.3209L8.45691 13.6521C8.374 13.7828 8.27269 13.9096 8.153 14.0327C8.02104 14.1533 7.93091 14.2898 7.88261 14.4424C7.87035 14.4398 7.83719 14.4921 7.78311 14.5991C7.71678 14.7037 7.65766 14.8023 7.60575 14.895C7.53941 14.9995 7.50012 15.0505 7.48786 15.048ZM11.6299 16.1232C11.5787 16.1274 11.503 16.1266 11.4027 16.1207C11.3025 16.1148 11.1972 16.1005 11.0869 16.0778C10.9643 16.0525 10.8438 16.0129 10.7256 15.959C10.6196 15.9076 10.5463 15.8482 10.506 15.7808C10.4901 15.7184 10.4832 15.68 10.4854 15.6657C10.4998 15.6539 10.4991 15.6168 10.4832 15.5545C10.4471 15.4584 10.4208 15.4234 10.4042 15.4495C10.3999 15.4782 10.392 15.447 10.3804 15.356C10.3746 15.3105 10.3804 15.2304 10.3977 15.1158C10.4236 14.9438 10.4579 14.7588 10.5004 14.5608C10.5573 14.3509 10.5912 14.2101 10.602 14.1385C10.6301 13.9522 10.6745 13.7841 10.735 13.6341C10.81 13.4722 10.8778 13.3163 10.9383 13.1663C11.045 12.878 11.1741 12.6091 11.3255 12.3596C11.4769 12.1101 11.6334 11.869 11.7949 11.6364C11.9232 11.456 12.0577 11.2769 12.1983 11.099C12.3411 10.9068 12.4939 10.7315 12.6569 10.573L12.7066 10.4946C12.6432 10.4963 12.5815 10.528 12.5217 10.5895C12.464 10.6367 12.4124 10.6852 12.367 10.7349C12.3216 10.7846 12.2628 10.839 12.1907 10.898C12.1186 10.957 12.0476 11.0089 11.9776 11.0536C11.4649 11.4354 10.923 11.8852 10.3519 12.4028C9.79528 12.9085 9.28404 13.3646 8.81823 13.7709C8.47211 14.0541 8.26227 14.1882 8.18871 14.173C8.13967 14.1629 8.17608 14.0892 8.29794 13.9518C8.40753 13.8118 8.58059 13.6702 8.81711 13.5269C8.81711 13.5269 8.85425 13.4902 8.92852 13.4169C9.01721 13.3318 9.06264 13.282 9.0648 13.2677C9.14484 13.2399 9.20253 13.1927 9.23786 13.1261C9.28761 13.0477 9.35971 12.9887 9.45418 12.9491L9.78191 12.662L9.96794 12.4344C10.1085 12.2566 10.2643 12.104 10.4352 11.9767C10.6183 11.8519 10.7914 11.7103 10.9544 11.5518C10.9688 11.54 11.0265 11.4928 11.1274 11.4102C11.2428 11.3158 11.3066 11.2699 11.3189 11.2724C11.3585 11.1771 11.4339 11.0966 11.5449 11.0309C11.6704 10.9533 11.762 10.8909 11.8197 10.8437L12.3421 10.3974L12.3637 10.3797L12.3973 10.4087L12.3821 10.3835C12.4174 10.3169 12.4762 10.2625 12.5584 10.2203C12.655 10.1664 12.7322 10.1158 12.7899 10.0686C12.862 10.0096 12.9867 9.89494 13.1641 9.72466C13.3437 9.54005 13.5315 9.46796 13.7277 9.50838C13.8257 9.5286 13.9134 9.5762 13.9905 9.6512C14.0252 9.67311 14.0778 9.74305 14.1485 9.86104C14.2314 9.98155 14.2971 10.0911 14.3454 10.1897C14.406 10.2908 14.4157 10.3519 14.3746 10.373C14.317 10.4202 14.2748 10.4485 14.2481 10.4577C14.1926 10.4906 14.0938 10.5589 13.9517 10.6626C13.8219 10.7688 13.7275 10.8084 13.6683 10.7815C13.6683 10.7815 13.6301 10.8253 13.5537 10.913C13.4895 11.0032 13.3078 11.2021 13.0086 11.5098C12.9884 11.4761 12.9152 11.5422 12.789 11.7083C12.6751 11.8769 12.5943 11.9932 12.5467 12.0573C12.4616 12.2022 12.3676 12.3232 12.2644 12.4201C12.1757 12.5053 12.0838 12.6119 11.9886 12.74L11.9822 12.783C11.9757 12.826 11.958 12.8593 11.9292 12.8829C11.9025 12.8922 11.8747 12.9086 11.8459 12.9322L11.8232 13.0827C11.8167 13.1257 11.772 13.2125 11.6891 13.3431C11.6206 13.462 11.556 13.5964 11.4955 13.7464C11.5085 13.9116 11.4829 14.0393 11.4187 14.1295C11.3546 14.2197 11.2843 14.3086 11.2078 14.3963C11.1458 14.4722 11.1091 14.5902 11.0975 14.7503C11.0932 14.779 11.0795 14.8279 11.0564 14.897C11.0456 14.9686 11.0327 15.0546 11.0175 15.1549C11.0002 15.2695 10.9941 15.3938 10.9992 15.5278C11.0043 15.6618 11.032 15.771 11.0825 15.8553C11.1128 15.9058 11.1586 15.9374 11.2199 15.95C11.3425 15.9753 11.4849 15.953 11.6472 15.883C11.8073 15.8273 11.914 15.7902 11.9674 15.7717L12.0907 15.7084C12.0885 15.7228 12.0874 15.7299 12.0874 15.7299C12.0708 15.7561 12.0265 15.7986 11.9544 15.8576C11.8801 15.931 11.847 15.9832 11.8549 16.0144C11.8181 16.0068 11.7997 16.0031 11.7997 16.0031L11.6299 16.1232Z"  fill="white" stroke-width="0.2" stroke="black"/>
<path d="M4.1512 20.5211L3.70119 20.3618L3.64602 20.3505C3.6316 20.3623 3.57534 20.3581 3.47727 20.3379C3.35467 20.3126 3.20971 20.2679 3.0424 20.2039C2.86282 20.1374 2.74347 20.0906 2.68433 20.0636L2.51016 19.9613L2.50692 19.9828C2.47014 19.9752 2.43552 19.9533 2.40306 19.917C2.35619 19.8926 2.31544 19.8694 2.28082 19.8475C2.16471 19.7793 2.0558 19.7051 1.95411 19.6251C1.838 19.5568 1.71684 19.4801 1.59063 19.395L1.30718 19.1372C1.26895 19.0554 1.18709 18.9278 1.06159 18.7542C0.921664 18.5924 0.843767 18.4803 0.827894 18.4179L0.914424 18.3471L0.983674 18.5165C1.06085 18.5915 1.13586 18.6808 1.2087 18.7845C1.26713 18.8999 1.33493 18.9952 1.4121 19.0702C1.5989 19.2564 1.80877 19.3735 2.04171 19.4215C2.26239 19.467 2.4809 19.5268 2.69726 19.6009C2.75855 19.6136 2.81985 19.6262 2.88115 19.6388C2.94029 19.6658 2.99943 19.6928 3.05857 19.7197L3.42418 19.6843L3.47287 19.7386C3.48729 19.7268 3.54967 19.7323 3.66001 19.755C3.72131 19.7676 3.78982 19.7744 3.86554 19.7752C3.92684 19.7878 3.95352 19.7786 3.94558 19.7474C3.95568 19.7642 3.97299 19.7752 3.99751 19.7802C4.00977 19.7828 4.01374 19.7984 4.00941 19.827C4.1695 19.7714 4.35087 19.7423 4.55351 19.7397C4.75399 19.7515 4.93824 19.7451 5.10627 19.7206C5.19641 19.7097 5.2815 19.6903 5.36155 19.6624C5.44159 19.6346 5.53679 19.6321 5.64712 19.6548C5.73798 19.5553 5.88364 19.5115 6.08412 19.5233C6.27235 19.5325 6.42703 19.5127 6.54818 19.4638C7.41424 19.1695 8.25795 18.8558 9.0793 18.5228L9.41893 18.2825C9.55666 18.2075 9.69836 18.148 9.84403 18.1042C9.97744 18.0578 10.113 17.9971 10.2507 17.9221L10.5384 17.6489C10.5673 17.6253 10.594 17.6161 10.6185 17.6211C10.6286 17.638 10.647 17.6418 10.6737 17.6325L10.8348 17.4441L10.8629 17.3834L10.97 17.4276L11.2512 17.1975L11.3789 16.98L11.9143 16.4477C11.9618 16.3836 12.0206 16.3293 12.0906 16.2846C12.1461 16.2517 12.1843 16.2079 12.2052 16.1531L12.2084 16.1316L12.2268 16.1354C12.2759 16.1455 12.2993 16.1577 12.2972 16.172C12.4385 15.9057 12.6101 15.6899 12.812 15.5247L12.8898 15.3856C12.9187 15.362 12.9659 15.3422 13.0315 15.3262C13.0849 15.3076 13.121 15.2781 13.1397 15.2376L13.1992 15.0948L13.4717 14.7964L13.5961 14.6004L13.8373 14.3842L14.3121 13.7507L14.6063 13.4346C14.6726 13.3301 14.7379 13.2327 14.8021 13.1425C14.8662 13.0523 14.9304 12.9622 14.9946 12.872L15.1741 12.6874L15.3299 12.4092L15.478 12.3068L15.5721 12.0602C15.6197 11.9962 15.6601 11.938 15.6933 11.8857C15.7408 11.8217 15.7812 11.7635 15.8144 11.7113C15.862 11.6472 15.9615 11.4904 16.1129 11.2409C16.2766 10.9939 16.4474 10.7411 16.6255 10.4823C16.8058 10.2092 16.9331 10.036 17.0073 9.96264C16.7766 10.1515 16.5469 10.3331 16.3183 10.5076C16.102 10.6847 15.9578 10.8027 15.8857 10.8617C15.7227 11.0202 15.5352 11.1736 15.3232 11.322C15.1235 11.4729 14.9432 11.6204 14.7824 11.7645C14.6382 11.8825 14.5001 12.0018 14.3682 12.1224C14.2485 12.2454 14.1288 12.3685 14.0091 12.4916C13.9514 12.5388 13.9042 12.5586 13.8674 12.551C13.8306 12.5434 13.8155 12.5182 13.8219 12.4752C13.8306 12.4179 13.8793 12.3466 13.9679 12.2615C13.999 12.2236 14.0433 12.181 14.101 12.1338C14.1608 12.0723 14.2113 12.031 14.2524 12.0099L14.9609 11.3359L15.5265 10.8542L15.9289 10.4495L17.3112 9.20531C17.2037 9.07975 17.0941 8.96852 16.9823 8.87161C16.8849 8.7629 16.8272 8.68453 16.8092 8.63649C16.7486 8.53536 16.7216 8.46331 16.7281 8.42032C16.749 8.36554 16.781 8.32044 16.8243 8.28503C16.8654 8.26396 16.9321 8.24077 17.0244 8.21547C17.129 8.19269 17.1946 8.17667 17.2213 8.1674C17.2747 8.14884 17.3197 8.14336 17.3565 8.15094C17.4914 8.17873 17.579 8.22633 17.6194 8.29375C17.76 8.36706 17.8779 8.46523 17.9731 8.58826C18.0229 8.50987 18.0777 8.43991 18.1375 8.37837C18.1995 8.30251 18.2616 8.22665 18.3236 8.15078C18.3834 8.08925 18.4382 8.01928 18.488 7.94089C18.55 7.86503 18.6282 7.80728 18.7227 7.76765C18.758 7.70107 18.8499 7.59443 18.9985 7.44776C19.1593 7.30361 19.2685 7.20793 19.3262 7.16073L19.9049 6.59299C19.9481 6.55759 19.9975 6.52344 20.053 6.49056C20.1208 6.46021 20.1702 6.42607 20.2012 6.38814L20.6263 6.20981L20.688 6.1782C20.7089 6.12341 20.781 6.0644 20.9043 6.00117C21.0399 5.94046 21.1744 5.88692 21.3078 5.84055C21.4556 5.78237 21.5551 5.75117 21.6063 5.74694L21.7848 5.69508C21.8136 5.67148 21.8475 5.6563 21.8865 5.64955C21.9377 5.64533 21.9827 5.63984 22.0217 5.6331C22.1529 5.60105 22.2759 5.58206 22.3905 5.57615C22.5196 5.55843 22.6476 5.54787 22.7745 5.54448L23.0937 5.56592C23.1651 5.5954 23.2844 5.64216 23.4517 5.70619C23.6335 5.75841 23.7395 5.80981 23.7698 5.86037L23.7352 5.96405L23.6129 5.89453C23.5293 5.86252 23.4456 5.83051 23.362 5.79849C23.2805 5.75215 23.1968 5.72014 23.111 5.70245C22.878 5.65445 22.6505 5.6962 22.4284 5.82772C22.2085 5.94491 21.9886 6.0621 21.7686 6.17928L21.4084 6.3045L21.1175 6.59911L21.0439 6.58396C21.023 6.63874 20.9448 6.69649 20.8092 6.75719C20.6859 6.82043 20.6343 6.8689 20.6545 6.90261C20.6401 6.91441 20.6196 6.92495 20.5929 6.93422C20.5806 6.9317 20.5756 6.92327 20.5777 6.90894C20.466 7.06319 20.3762 7.1555 20.3084 7.18585C20.2529 7.21873 20.1519 7.30134 20.0056 7.43369C19.9435 7.50955 19.8278 7.64822 19.6584 7.84968C19.4911 8.03681 19.3591 8.15735 19.2625 8.21131C19.2286 8.35207 19.127 8.52318 18.9575 8.72464C18.7881 8.9261 18.6424 9.09553 18.5206 9.23293C18.5732 9.30288 18.6147 9.36313 18.645 9.4137C18.6897 9.45246 18.7121 9.47184 18.7121 9.47184C18.7113 9.56033 18.7341 9.66105 18.7802 9.77398C18.8286 9.87258 18.869 9.94 18.9014 9.97624C18.9339 10.0125 18.9508 10.0677 18.9523 10.1418C18.9905 10.2236 19.0125 10.2872 19.0183 10.3327C19.0363 10.3808 19.0335 10.4836 19.0097 10.6412C18.9881 10.7845 19.0187 10.9164 19.1017 11.0369C19.199 11.1456 19.2113 11.2737 19.1385 11.4212C19.1197 11.4617 19.101 11.5021 19.0823 11.5426C19.0758 11.5856 19.0704 11.6214 19.066 11.6501C19.0509 11.7503 19.0531 11.8616 19.0726 11.9838C19.1065 12.0942 19.1115 12.2282 19.0878 12.3858C19.0733 12.3976 19.064 12.4179 19.0596 12.4465C19.0553 12.4752 19.0622 12.5135 19.0802 12.5616C19.1105 12.6121 19.1091 12.6635 19.0759 12.7158C19.0593 12.7419 19.0366 12.7668 19.0078 12.7904C18.9933 12.8022 18.9768 12.8283 18.958 12.8688C18.9436 12.8806 18.931 12.9223 18.9202 12.994C18.9115 13.0513 18.9018 13.1157 18.891 13.1874C18.8924 13.2616 18.8777 13.3176 18.8467 13.3555C18.7558 13.455 18.7039 13.5477 18.6909 13.6337C18.6823 13.691 18.6942 13.7378 18.7266 13.774C18.7613 13.7959 18.7486 13.8376 18.6888 13.8992L18.5341 14.0446C18.4721 14.1205 18.4335 14.2085 18.4184 14.3088C18.4177 14.3973 18.3813 14.4711 18.3092 14.5301C18.2349 14.6034 18.1131 14.7408 17.9436 14.9423C17.7742 15.1438 17.6058 15.338 17.4385 15.5252C17.2835 15.7148 17.1627 15.8451 17.0762 15.9159L16.9064 16.036L16.199 16.5772C16.1146 16.6337 16.0324 16.6759 15.9524 16.7037C15.8702 16.7458 15.7869 16.7952 15.7025 16.8516C15.608 16.8913 15.5136 16.9309 15.4191 16.9705C15.3369 17.0127 15.2486 17.0536 15.1541 17.0932C15.0719 17.1354 14.9489 17.1543 14.7852 17.1502C14.6316 17.1628 14.5231 17.17 14.4596 17.1717C14.3983 17.1591 14.2779 17.1195 14.0983 17.0529C13.9289 17.0032 13.8167 16.9506 13.7619 16.8949C13.6869 16.8056 13.6375 16.7142 13.6137 16.6206C13.6 16.5439 13.5985 16.4698 13.6093 16.3981C13.618 16.3408 13.6266 16.2835 13.6353 16.2262C13.6562 16.1714 13.6709 16.1153 13.6796 16.058C13.7091 15.9459 13.7549 15.852 13.8169 15.7761C13.8768 15.7146 13.9355 15.6602 13.9932 15.613C14.0632 15.5683 14.127 15.5223 14.1847 15.4751C14.2445 15.4136 14.3094 15.3605 14.3794 15.3158C14.427 15.2518 14.5001 15.1856 14.5989 15.1173C14.7121 15.0372 14.7933 15.0022 14.8423 15.0123L14.8456 14.9908C14.8888 14.9554 14.9404 14.907 15.0002 14.8454C15.0601 14.7839 15.1095 14.7497 15.1484 14.743C15.1607 14.7455 15.174 14.7409 15.1884 14.7291C15.1884 14.7291 15.1895 14.7219 15.1917 14.7076C15.2061 14.6958 15.2205 14.684 15.2349 14.6722L15.2382 14.6507C15.2649 14.6414 15.2915 14.6321 15.3182 14.6229C15.3449 14.6136 15.3644 14.6102 15.3766 14.6127C15.4076 14.5748 15.4354 14.5584 15.4599 14.5634C15.4621 14.5491 15.4715 14.5289 15.488 14.5027C15.5169 14.4791 15.5313 14.4673 15.5313 14.4673L15.6113 14.4395C15.6402 14.4159 15.6535 14.4113 15.6514 14.4256C15.6615 14.4424 15.6737 14.445 15.6881 14.4332C15.9081 14.316 16.123 14.1904 16.3328 14.0563C16.5448 13.908 16.8354 13.7832 17.2046 13.682L17.2933 13.7224C16.7922 13.9442 16.3552 14.2013 15.9824 14.4938C15.6096 14.7863 15.3522 14.9844 15.2101 15.0881C15.138 15.1471 15.0338 15.2512 14.8975 15.4004C14.7612 15.5496 14.625 15.6988 14.4887 15.848C14.3502 16.0116 14.2356 16.1431 14.1447 16.2425C14.1303 16.2543 14.1137 16.2805 14.095 16.3209C14.0762 16.3614 14.0626 16.4103 14.0539 16.4676C14.0388 16.5679 14.0554 16.6673 14.1037 16.7659C14.152 16.8645 14.262 16.9315 14.4337 16.9669C14.4827 16.977 14.5328 16.9799 14.584 16.9757C14.6331 16.9858 14.6893 16.99 14.7528 16.9883C14.8429 16.9774 14.9168 16.9483 14.9745 16.9011C15.0445 16.8564 15.1039 16.8391 15.153 16.8492L15.1779 16.81C15.2146 16.8176 15.2485 16.8024 15.2795 16.7645C15.3228 16.7291 15.3639 16.708 15.4028 16.7012C15.4317 16.6776 15.4955 16.6317 15.5943 16.5634C15.6909 16.5095 15.7598 16.4719 15.8009 16.4509C15.8975 16.3969 15.9952 16.3358 16.094 16.2675C16.1928 16.1992 16.2927 16.1238 16.3936 16.0412C16.4225 16.0176 16.4513 15.994 16.4802 15.9703C16.509 15.9467 16.5306 15.929 16.5451 15.9172C16.5739 15.8936 16.6071 15.8414 16.6446 15.7605C16.6965 15.6677 16.7419 15.618 16.7808 15.6113C16.7953 15.5995 16.8428 15.5354 16.9236 15.4191C17.0166 15.3053 17.0692 15.2496 17.0815 15.2522C17.1248 15.2168 17.2095 15.116 17.3357 14.95C17.4741 14.7864 17.618 14.5871 17.7672 14.3519C17.9186 14.1024 18.0322 13.8525 18.1079 13.6022C18.1223 13.5904 18.1371 13.5343 18.1522 13.434C18.1738 13.2907 18.1875 13.1163 18.1932 12.9106C18.2134 12.6932 18.2339 12.5571 18.2549 12.5023C18.3284 12.2663 18.3749 12.0838 18.3943 11.9548C18.4311 11.7113 18.4195 11.4947 18.3596 11.305C18.312 11.1179 18.2561 10.8183 18.1919 10.4062C18.1681 10.3126 18.1259 10.2153 18.0653 10.1142L17.9842 10.2747C17.9632 10.3295 17.8919 10.4256 17.77 10.563C17.6481 10.7004 17.575 10.7666 17.5504 10.7615C17.5418 10.8189 17.4993 10.8913 17.4228 10.979C17.3608 11.0549 17.3327 11.1156 17.3385 11.1611C17.2397 11.2294 17.156 11.3229 17.0875 11.4418C17.0212 11.5463 16.9487 11.6496 16.8702 11.7515C16.7274 11.9437 16.5846 12.1359 16.4419 12.3281C16.2991 12.5203 16.1513 12.7041 15.9984 12.8794C15.5622 13.4248 15.1097 13.952 14.641 14.4612C14.1745 14.956 13.6979 15.4339 13.2112 15.895C13.0338 16.0653 12.8625 16.2368 12.6974 16.4097C12.5179 16.5943 12.3293 16.7548 12.1317 16.8914C12.1029 16.915 12.0297 16.9812 11.9122 17.0899C11.7946 17.1987 11.6782 17.3003 11.5628 17.3947C11.4474 17.4891 11.3775 17.5338 11.353 17.5287C11.3299 17.5978 11.27 17.6594 11.1734 17.7133C11.0768 17.7673 10.9996 17.8179 10.942 17.8651C10.841 17.9477 10.7462 18.0316 10.6575 18.1167C10.5666 18.2162 10.4697 18.3144 10.3665 18.4113C10.28 18.4821 10.1884 18.5445 10.0918 18.5985C9.99301 18.6667 9.90036 18.7363 9.81383 18.8071C9.59534 18.9985 9.36171 19.1645 9.11293 19.3053C8.86415 19.4461 8.61645 19.5797 8.36983 19.7062C8.31431 19.7391 8.22381 19.7943 8.09834 19.8719C7.96061 19.9469 7.86109 19.9781 7.79979 19.9655L7.41148 20.1514L7.02098 20.226L6.44877 20.374C6.36079 20.3707 6.2829 20.3842 6.21512 20.4145C6.13508 20.4424 6.04709 20.439 5.95118 20.4045C5.89565 20.4373 5.7727 20.4563 5.58232 20.4614C5.38977 20.4808 5.25672 20.4829 5.18316 20.4678L4.46707 20.564L4.30156 20.5299C4.228 20.5147 4.17788 20.5118 4.1512 20.5211ZM17.0538 9.90574L17.0722 9.90953L17.0971 9.87033C17.0682 9.89394 17.0538 9.90574 17.0538 9.90574Z"  fill="white" stroke-width="0.2" stroke="black"/>
</svg>
